<?xml version="1.0" encoding="UTF-8"?>
<svg width="128px" height="128px" viewBox="0 0 128 128" version="1.1" xmlns="http://www.w3.org/2000/svg" xmlns:xlink="http://www.w3.org/1999/xlink">
    <title>Group 17</title>
    <g id="Page-1" stroke="none" stroke-width="1" fill="none" fill-rule="evenodd">
        <g id="Desktop-Copy-2" transform="translate(-418.000000, -471.000000)">
            <g id="Group-17" transform="translate(418.000000, 471.000000)">
                <rect id="Rectangle-Copy-2" fill="#FFFFFF" x="0" y="0" width="128" height="128" rx="64"></rect>
                <path d="M63.65,32.275 C80.950175,32.275 95.025,46.349825 95.025,63.65 C95.025,80.950175 80.950175,95.025 63.65,95.025 C46.349825,95.025 32.275,80.950175 32.275,63.65 C32.275,46.349825 46.349825,32.275 63.65,32.275 Z M63.65,26 C42.8577875,26 26,42.8577875 26,63.65 C26,84.4422125 42.8577875,101.3 63.65,101.3 C84.4422125,101.3 101.3,84.4422125 101.3,63.65 C101.3,42.8577875 84.4422125,26 63.65,26 Z M63.65,44.825 C74.0319875,44.825 82.475,53.2680125 82.475,63.65 C82.475,74.0319875 74.0319875,82.475 63.65,82.475 C53.2680125,82.475 44.825,74.0319875 44.825,63.65 C44.825,53.2680125 53.2680125,44.825 63.65,44.825 Z M63.65,38.55 C49.788525,38.55 38.55,49.788525 38.55,63.65 C38.55,77.511475 49.788525,88.75 63.65,88.75 C77.511475,88.75 88.75,77.511475 88.75,63.65 C88.75,49.788525 77.511475,38.55 63.65,38.55 Z M63.65,51.1 C56.7192625,51.1 51.1,56.7192625 51.1,63.65 C51.1,70.5807375 56.7192625,76.2 63.65,76.2 C70.5807375,76.2 76.2,70.5807375 76.2,63.65 C76.2,56.7192625 70.5807375,51.1 63.65,51.1 Z" id="Shape" fill="#000000" fill-rule="nonzero"></path>
            </g>
        </g>
    </g>
</svg>