<?xml version="1.0" encoding="UTF-8"?>
<svg width="122px" height="120px" viewBox="0 0 122 120" version="1.1" xmlns="http://www.w3.org/2000/svg" xmlns:xlink="http://www.w3.org/1999/xlink">
    <title>Group 5</title>
    <g id="Page-1" stroke="none" stroke-width="1" fill="none" fill-rule="evenodd">
        <g id="Desktop-Copy-4" transform="translate(-263.000000, -712.000000)" fill="#D8D8D8" stroke="#979797">
            <g id="Group-5" transform="translate(264.000000, 713.000000)">
                <g id="Group-3" transform="translate(0.000000, 11.900826)">
                    <rect id="Rectangle-Copy-3" x="0" y="0" width="15.1593861" height="15.1593861"></rect>
                    <rect id="Rectangle-Copy-3" x="0" y="30.3187721" width="15.1593861" height="15.1593861"></rect>
                    <rect id="Rectangle-Copy-3" x="0" y="60.6375443" width="15.1593861" height="15.1593861"></rect>
                    <rect id="Rectangle-Copy-3" x="0" y="90.9563164" width="15.1593861" height="15.1593861"></rect>
                    <rect id="Rectangle-Copy-3" x="30.3187721" y="0" width="15.1593861" height="15.1593861"></rect>
                    <rect id="Rectangle-Copy-3" x="30.3187721" y="30.3187721" width="15.1593861" height="15.1593861"></rect>
                    <rect id="Rectangle-Copy-3" x="30.3187721" y="60.6375443" width="15.1593861" height="15.1593861"></rect>
                    <rect id="Rectangle-Copy-3" x="30.3187721" y="90.9563164" width="15.1593861" height="15.1593861"></rect>
                    <rect id="Rectangle-Copy-3" x="0" y="0" width="15.1593861" height="15.1593861"></rect>
                    <rect id="Rectangle-Copy-3" x="0" y="30.3187721" width="15.1593861" height="15.1593861"></rect>
                    <rect id="Rectangle-Copy-3" x="0" y="60.6375443" width="15.1593861" height="15.1593861"></rect>
                    <rect id="Rectangle-Copy-3" x="0" y="90.9563164" width="15.1593861" height="15.1593861"></rect>
                    <rect id="Rectangle-Copy-3" x="30.3187721" y="0" width="15.1593861" height="15.1593861"></rect>
                    <rect id="Rectangle-Copy-3" x="30.3187721" y="30.3187721" width="15.1593861" height="15.1593861"></rect>
                    <rect id="Rectangle-Copy-3" x="30.3187721" y="60.6375443" width="15.1593861" height="15.1593861"></rect>
                    <rect id="Rectangle-Copy-3" x="30.3187721" y="90.9563164" width="15.1593861" height="15.1593861"></rect>
                    <rect id="Rectangle-Copy-3" x="60.6375443" y="0" width="15.1593861" height="15.1593861"></rect>
                    <rect id="Rectangle-Copy-3" x="60.6375443" y="30.3187721" width="15.1593861" height="15.1593861"></rect>
                    <rect id="Rectangle-Copy-3" x="60.6375443" y="60.6375443" width="15.1593861" height="15.1593861"></rect>
                    <rect id="Rectangle-Copy-3" x="60.6375443" y="90.9563164" width="15.1593861" height="15.1593861"></rect>
                    <rect id="Rectangle-Copy-3" x="90.9563164" y="0" width="15.1593861" height="15.1593861"></rect>
                    <rect id="Rectangle-Copy-3" x="90.9563164" y="30.3187721" width="15.1593861" height="15.1593861"></rect>
                    <rect id="Rectangle-Copy-3" x="90.9563164" y="60.6375443" width="15.1593861" height="15.1593861"></rect>
                    <rect id="Rectangle-Copy-3" x="90.9563164" y="90.9563164" width="15.1593861" height="15.1593861"></rect>
                    <rect id="Rectangle-Copy-3" x="60.6375443" y="0" width="15.1593861" height="15.1593861"></rect>
                    <rect id="Rectangle-Copy-3" x="60.6375443" y="30.3187721" width="15.1593861" height="15.1593861"></rect>
                    <rect id="Rectangle-Copy-3" x="60.6375443" y="60.6375443" width="15.1593861" height="15.1593861"></rect>
                    <rect id="Rectangle-Copy-3" x="60.6375443" y="90.9563164" width="15.1593861" height="15.1593861"></rect>
                    <rect id="Rectangle-Copy-3" x="90.9563164" y="0" width="15.1593861" height="15.1593861"></rect>
                    <rect id="Rectangle-Copy-3" x="90.9563164" y="30.3187721" width="15.1593861" height="15.1593861"></rect>
                    <rect id="Rectangle-Copy-3" x="90.9563164" y="60.6375443" width="15.1593861" height="15.1593861"></rect>
                    <rect id="Rectangle-Copy-3" x="90.9563164" y="90.9563164" width="15.1593861" height="15.1593861"></rect>
                </g>
                <g id="Group-3-Copy" transform="translate(0.000000, 11.900826)">
                    <rect id="Rectangle-Copy-3" x="0" y="0" width="15.1593861" height="15.1593861"></rect>
                    <rect id="Rectangle-Copy-3" x="0" y="30.3187721" width="15.1593861" height="15.1593861"></rect>
                    <rect id="Rectangle-Copy-3" x="0" y="60.6375443" width="15.1593861" height="15.1593861"></rect>
                    <rect id="Rectangle-Copy-3" x="0" y="90.9563164" width="15.1593861" height="15.1593861"></rect>
                    <rect id="Rectangle-Copy-3" x="30.3187721" y="0" width="15.1593861" height="15.1593861"></rect>
                    <rect id="Rectangle-Copy-3" x="30.3187721" y="30.3187721" width="15.1593861" height="15.1593861"></rect>
                    <rect id="Rectangle-Copy-3" x="30.3187721" y="60.6375443" width="15.1593861" height="15.1593861"></rect>
                    <rect id="Rectangle-Copy-3" x="30.3187721" y="90.9563164" width="15.1593861" height="15.1593861"></rect>
                    <rect id="Rectangle-Copy-3" x="0" y="0" width="15.1593861" height="15.1593861"></rect>
                    <rect id="Rectangle-Copy-3" x="0" y="30.3187721" width="15.1593861" height="15.1593861"></rect>
                    <rect id="Rectangle-Copy-3" x="0" y="60.6375443" width="15.1593861" height="15.1593861"></rect>
                    <rect id="Rectangle-Copy-3" x="0" y="90.9563164" width="15.1593861" height="15.1593861"></rect>
                    <rect id="Rectangle-Copy-3" x="30.3187721" y="0" width="15.1593861" height="15.1593861"></rect>
                    <rect id="Rectangle-Copy-3" x="30.3187721" y="30.3187721" width="15.1593861" height="15.1593861"></rect>
                    <rect id="Rectangle-Copy-3" x="30.3187721" y="60.6375443" width="15.1593861" height="15.1593861"></rect>
                    <rect id="Rectangle-Copy-3" x="30.3187721" y="90.9563164" width="15.1593861" height="15.1593861"></rect>
                    <rect id="Rectangle-Copy-3" x="60.6375443" y="0" width="15.1593861" height="15.1593861"></rect>
                    <rect id="Rectangle-Copy-3" x="60.6375443" y="30.3187721" width="15.1593861" height="15.1593861"></rect>
                    <rect id="Rectangle-Copy-3" x="60.6375443" y="60.6375443" width="15.1593861" height="15.1593861"></rect>
                    <rect id="Rectangle-Copy-3" x="60.6375443" y="90.9563164" width="15.1593861" height="15.1593861"></rect>
                    <rect id="Rectangle-Copy-3" x="90.9563164" y="0" width="15.1593861" height="15.1593861"></rect>
                    <rect id="Rectangle-Copy-3" x="90.9563164" y="30.3187721" width="15.1593861" height="15.1593861"></rect>
                    <rect id="Rectangle-Copy-3" x="90.9563164" y="60.6375443" width="15.1593861" height="15.1593861"></rect>
                    <rect id="Rectangle-Copy-3" x="90.9563164" y="90.9563164" width="15.1593861" height="15.1593861"></rect>
                    <rect id="Rectangle-Copy-3" x="60.6375443" y="0" width="15.1593861" height="15.1593861"></rect>
                    <rect id="Rectangle-Copy-3" x="60.6375443" y="30.3187721" width="15.1593861" height="15.1593861"></rect>
                    <rect id="Rectangle-Copy-3" x="60.6375443" y="60.6375443" width="15.1593861" height="15.1593861"></rect>
                    <rect id="Rectangle-Copy-3" x="60.6375443" y="90.9563164" width="15.1593861" height="15.1593861"></rect>
                    <rect id="Rectangle-Copy-3" x="90.9563164" y="0" width="15.1593861" height="15.1593861"></rect>
                    <rect id="Rectangle-Copy-3" x="90.9563164" y="30.3187721" width="15.1593861" height="15.1593861"></rect>
                    <rect id="Rectangle-Copy-3" x="90.9563164" y="60.6375443" width="15.1593861" height="15.1593861"></rect>
                    <rect id="Rectangle-Copy-3" x="90.9563164" y="90.9563164" width="15.1593861" height="15.1593861"></rect>
                </g>
                <g id="Group-3-Copy-2" transform="translate(4.958678, 7.933884)">
                    <rect id="Rectangle-Copy-3" x="0" y="0" width="15.1593861" height="15.1593861"></rect>
                    <rect id="Rectangle-Copy-3" x="0" y="30.3187721" width="15.1593861" height="15.1593861"></rect>
                    <rect id="Rectangle-Copy-3" x="0" y="60.6375443" width="15.1593861" height="15.1593861"></rect>
                    <rect id="Rectangle-Copy-3" x="0" y="90.9563164" width="15.1593861" height="15.1593861"></rect>
                    <rect id="Rectangle-Copy-3" x="30.3187721" y="0" width="15.1593861" height="15.1593861"></rect>
                    <rect id="Rectangle-Copy-3" x="30.3187721" y="30.3187721" width="15.1593861" height="15.1593861"></rect>
                    <rect id="Rectangle-Copy-3" x="30.3187721" y="60.6375443" width="15.1593861" height="15.1593861"></rect>
                    <rect id="Rectangle-Copy-3" x="30.3187721" y="90.9563164" width="15.1593861" height="15.1593861"></rect>
                    <rect id="Rectangle-Copy-3" x="0" y="0" width="15.1593861" height="15.1593861"></rect>
                    <rect id="Rectangle-Copy-3" x="0" y="30.3187721" width="15.1593861" height="15.1593861"></rect>
                    <rect id="Rectangle-Copy-3" x="0" y="60.6375443" width="15.1593861" height="15.1593861"></rect>
                    <rect id="Rectangle-Copy-3" x="0" y="90.9563164" width="15.1593861" height="15.1593861"></rect>
                    <rect id="Rectangle-Copy-3" x="30.3187721" y="0" width="15.1593861" height="15.1593861"></rect>
                    <rect id="Rectangle-Copy-3" x="30.3187721" y="30.3187721" width="15.1593861" height="15.1593861"></rect>
                    <rect id="Rectangle-Copy-3" x="30.3187721" y="60.6375443" width="15.1593861" height="15.1593861"></rect>
                    <rect id="Rectangle-Copy-3" x="30.3187721" y="90.9563164" width="15.1593861" height="15.1593861"></rect>
                    <rect id="Rectangle-Copy-3" x="60.6375443" y="0" width="15.1593861" height="15.1593861"></rect>
                    <rect id="Rectangle-Copy-3" x="60.6375443" y="30.3187721" width="15.1593861" height="15.1593861"></rect>
                    <rect id="Rectangle-Copy-3" x="60.6375443" y="60.6375443" width="15.1593861" height="15.1593861"></rect>
                    <rect id="Rectangle-Copy-3" x="60.6375443" y="90.9563164" width="15.1593861" height="15.1593861"></rect>
                    <rect id="Rectangle-Copy-3" x="90.9563164" y="0" width="15.1593861" height="15.1593861"></rect>
                    <rect id="Rectangle-Copy-3" x="90.9563164" y="30.3187721" width="15.1593861" height="15.1593861"></rect>
                    <rect id="Rectangle-Copy-3" x="90.9563164" y="60.6375443" width="15.1593861" height="15.1593861"></rect>
                    <rect id="Rectangle-Copy-3" x="90.9563164" y="90.9563164" width="15.1593861" height="15.1593861"></rect>
                    <rect id="Rectangle-Copy-3" x="60.6375443" y="0" width="15.1593861" height="15.1593861"></rect>
                    <rect id="Rectangle-Copy-3" x="60.6375443" y="30.3187721" width="15.1593861" height="15.1593861"></rect>
                    <rect id="Rectangle-Copy-3" x="60.6375443" y="60.6375443" width="15.1593861" height="15.1593861"></rect>
                    <rect id="Rectangle-Copy-3" x="60.6375443" y="90.9563164" width="15.1593861" height="15.1593861"></rect>
                    <rect id="Rectangle-Copy-3" x="90.9563164" y="0" width="15.1593861" height="15.1593861"></rect>
                    <rect id="Rectangle-Copy-3" x="90.9563164" y="30.3187721" width="15.1593861" height="15.1593861"></rect>
                    <rect id="Rectangle-Copy-3" x="90.9563164" y="60.6375443" width="15.1593861" height="15.1593861"></rect>
                    <rect id="Rectangle-Copy-3" x="90.9563164" y="90.9563164" width="15.1593861" height="15.1593861"></rect>
                </g>
                <g id="Group-3-Copy-3" transform="translate(8.925620, 3.966942)">
                    <rect id="Rectangle-Copy-3" x="0" y="0" width="15.1593861" height="15.1593861"></rect>
                    <rect id="Rectangle-Copy-3" x="0" y="30.3187721" width="15.1593861" height="15.1593861"></rect>
                    <rect id="Rectangle-Copy-3" x="0" y="60.6375443" width="15.1593861" height="15.1593861"></rect>
                    <rect id="Rectangle-Copy-3" x="0" y="90.9563164" width="15.1593861" height="15.1593861"></rect>
                    <rect id="Rectangle-Copy-3" x="30.3187721" y="0" width="15.1593861" height="15.1593861"></rect>
                    <rect id="Rectangle-Copy-3" x="30.3187721" y="30.3187721" width="15.1593861" height="15.1593861"></rect>
                    <rect id="Rectangle-Copy-3" x="30.3187721" y="60.6375443" width="15.1593861" height="15.1593861"></rect>
                    <rect id="Rectangle-Copy-3" x="30.3187721" y="90.9563164" width="15.1593861" height="15.1593861"></rect>
                    <rect id="Rectangle-Copy-3" x="0" y="0" width="15.1593861" height="15.1593861"></rect>
                    <rect id="Rectangle-Copy-3" x="0" y="30.3187721" width="15.1593861" height="15.1593861"></rect>
                    <rect id="Rectangle-Copy-3" x="0" y="60.6375443" width="15.1593861" height="15.1593861"></rect>
                    <rect id="Rectangle-Copy-3" x="0" y="90.9563164" width="15.1593861" height="15.1593861"></rect>
                    <rect id="Rectangle-Copy-3" x="30.3187721" y="0" width="15.1593861" height="15.1593861"></rect>
                    <rect id="Rectangle-Copy-3" x="30.3187721" y="30.3187721" width="15.1593861" height="15.1593861"></rect>
                    <rect id="Rectangle-Copy-3" x="30.3187721" y="60.6375443" width="15.1593861" height="15.1593861"></rect>
                    <rect id="Rectangle-Copy-3" x="30.3187721" y="90.9563164" width="15.1593861" height="15.1593861"></rect>
                    <rect id="Rectangle-Copy-3" x="60.6375443" y="0" width="15.1593861" height="15.1593861"></rect>
                    <rect id="Rectangle-Copy-3" x="60.6375443" y="30.3187721" width="15.1593861" height="15.1593861"></rect>
                    <rect id="Rectangle-Copy-3" x="60.6375443" y="60.6375443" width="15.1593861" height="15.1593861"></rect>
                    <rect id="Rectangle-Copy-3" x="60.6375443" y="90.9563164" width="15.1593861" height="15.1593861"></rect>
                    <rect id="Rectangle-Copy-3" x="90.9563164" y="0" width="15.1593861" height="15.1593861"></rect>
                    <rect id="Rectangle-Copy-3" x="90.9563164" y="30.3187721" width="15.1593861" height="15.1593861"></rect>
                    <rect id="Rectangle-Copy-3" x="90.9563164" y="60.6375443" width="15.1593861" height="15.1593861"></rect>
                    <rect id="Rectangle-Copy-3" x="90.9563164" y="90.9563164" width="15.1593861" height="15.1593861"></rect>
                    <rect id="Rectangle-Copy-3" x="60.6375443" y="0" width="15.1593861" height="15.1593861"></rect>
                    <rect id="Rectangle-Copy-3" x="60.6375443" y="30.3187721" width="15.1593861" height="15.1593861"></rect>
                    <rect id="Rectangle-Copy-3" x="60.6375443" y="60.6375443" width="15.1593861" height="15.1593861"></rect>
                    <rect id="Rectangle-Copy-3" x="60.6375443" y="90.9563164" width="15.1593861" height="15.1593861"></rect>
                    <rect id="Rectangle-Copy-3" x="90.9563164" y="0" width="15.1593861" height="15.1593861"></rect>
                    <rect id="Rectangle-Copy-3" x="90.9563164" y="30.3187721" width="15.1593861" height="15.1593861"></rect>
                    <rect id="Rectangle-Copy-3" x="90.9563164" y="60.6375443" width="15.1593861" height="15.1593861"></rect>
                    <rect id="Rectangle-Copy-3" x="90.9563164" y="90.9563164" width="15.1593861" height="15.1593861"></rect>
                </g>
                <g id="Group-3-Copy-4" transform="translate(13.884298, 0.000000)">
                    <rect id="Rectangle-Copy-3" x="0" y="0" width="15.1593861" height="15.1593861"></rect>
                    <rect id="Rectangle-Copy-3" x="0" y="30.3187721" width="15.1593861" height="15.1593861"></rect>
                    <rect id="Rectangle-Copy-3" x="0" y="60.6375443" width="15.1593861" height="15.1593861"></rect>
                    <rect id="Rectangle-Copy-3" x="0" y="90.9563164" width="15.1593861" height="15.1593861"></rect>
                    <rect id="Rectangle-Copy-3" x="30.3187721" y="0" width="15.1593861" height="15.1593861"></rect>
                    <rect id="Rectangle-Copy-3" x="30.3187721" y="30.3187721" width="15.1593861" height="15.1593861"></rect>
                    <rect id="Rectangle-Copy-3" x="30.3187721" y="60.6375443" width="15.1593861" height="15.1593861"></rect>
                    <rect id="Rectangle-Copy-3" x="30.3187721" y="90.9563164" width="15.1593861" height="15.1593861"></rect>
                    <rect id="Rectangle-Copy-3" x="0" y="0" width="15.1593861" height="15.1593861"></rect>
                    <rect id="Rectangle-Copy-3" x="0" y="30.3187721" width="15.1593861" height="15.1593861"></rect>
                    <rect id="Rectangle-Copy-3" x="0" y="60.6375443" width="15.1593861" height="15.1593861"></rect>
                    <rect id="Rectangle-Copy-3" x="0" y="90.9563164" width="15.1593861" height="15.1593861"></rect>
                    <rect id="Rectangle-Copy-3" x="30.3187721" y="0" width="15.1593861" height="15.1593861"></rect>
                    <rect id="Rectangle-Copy-3" x="30.3187721" y="30.3187721" width="15.1593861" height="15.1593861"></rect>
                    <rect id="Rectangle-Copy-3" x="30.3187721" y="60.6375443" width="15.1593861" height="15.1593861"></rect>
                    <rect id="Rectangle-Copy-3" x="30.3187721" y="90.9563164" width="15.1593861" height="15.1593861"></rect>
                    <rect id="Rectangle-Copy-3" x="60.6375443" y="0" width="15.1593861" height="15.1593861"></rect>
                    <rect id="Rectangle-Copy-3" x="60.6375443" y="30.3187721" width="15.1593861" height="15.1593861"></rect>
                    <rect id="Rectangle-Copy-3" x="60.6375443" y="60.6375443" width="15.1593861" height="15.1593861"></rect>
                    <rect id="Rectangle-Copy-3" x="60.6375443" y="90.9563164" width="15.1593861" height="15.1593861"></rect>
                    <rect id="Rectangle-Copy-3" x="90.9563164" y="0" width="15.1593861" height="15.1593861"></rect>
                    <rect id="Rectangle-Copy-3" x="90.9563164" y="30.3187721" width="15.1593861" height="15.1593861"></rect>
                    <rect id="Rectangle-Copy-3" x="90.9563164" y="60.6375443" width="15.1593861" height="15.1593861"></rect>
                    <rect id="Rectangle-Copy-3" x="90.9563164" y="90.9563164" width="15.1593861" height="15.1593861"></rect>
                    <rect id="Rectangle-Copy-3" x="60.6375443" y="0" width="15.1593861" height="15.1593861"></rect>
                    <rect id="Rectangle-Copy-3" x="60.6375443" y="30.3187721" width="15.1593861" height="15.1593861"></rect>
                    <rect id="Rectangle-Copy-3" x="60.6375443" y="60.6375443" width="15.1593861" height="15.1593861"></rect>
                    <rect id="Rectangle-Copy-3" x="60.6375443" y="90.9563164" width="15.1593861" height="15.1593861"></rect>
                    <rect id="Rectangle-Copy-3" x="90.9563164" y="0" width="15.1593861" height="15.1593861"></rect>
                    <rect id="Rectangle-Copy-3" x="90.9563164" y="30.3187721" width="15.1593861" height="15.1593861"></rect>
                    <rect id="Rectangle-Copy-3" x="90.9563164" y="60.6375443" width="15.1593861" height="15.1593861"></rect>
                    <rect id="Rectangle-Copy-3" x="90.9563164" y="90.9563164" width="15.1593861" height="15.1593861"></rect>
                </g>
            </g>
        </g>
    </g>
</svg>