<?xml version="1.0" encoding="UTF-8"?>
<svg width="120px" height="120px" viewBox="0 0 120 120" version="1.1" xmlns="http://www.w3.org/2000/svg" xmlns:xlink="http://www.w3.org/1999/xlink">
    <title>Group 4</title>
    <g id="Page-1" stroke="none" stroke-width="1" fill="none" fill-rule="evenodd">
        <g id="Desktop-Copy-4" transform="translate(-403.000000, -713.000000)" fill="#D8D8D8">
            <g id="Group-4" transform="translate(403.000000, 713.000000)">
                <rect id="Rectangle-Copy-3" x="0" y="0" width="21.2765957" height="21.2765957"></rect>
                <rect id="Rectangle-Copy-3" x="24.6808511" y="0" width="21.2765957" height="21.2765957"></rect>
                <rect id="Rectangle-Copy-3" x="49.3617021" y="0" width="21.2765957" height="21.2765957"></rect>
                <rect id="Rectangle-Copy-3" x="74.0425532" y="0" width="21.2765957" height="21.2765957"></rect>
                <rect id="Rectangle-Copy-3" x="0" y="24.6808511" width="21.2765957" height="21.2765957"></rect>
                <rect id="Rectangle-Copy-3" x="24.6808511" y="24.6808511" width="21.2765957" height="21.2765957"></rect>
                <rect id="Rectangle-Copy-3" x="49.3617021" y="24.6808511" width="21.2765957" height="21.2765957"></rect>
                <rect id="Rectangle-Copy-3" x="74.0425532" y="24.6808511" width="21.2765957" height="21.2765957"></rect>
                <rect id="Rectangle-Copy-3" x="0" y="49.3617021" width="21.2765957" height="21.2765957"></rect>
                <rect id="Rectangle-Copy-3" x="24.6808511" y="49.3617021" width="21.2765957" height="21.2765957"></rect>
                <rect id="Rectangle-Copy-3" x="49.3617021" y="49.3617021" width="21.2765957" height="21.2765957"></rect>
                <rect id="Rectangle-Copy-3" x="74.0425532" y="49.3617021" width="21.2765957" height="21.2765957"></rect>
                <rect id="Rectangle-Copy-3" x="0" y="74.0425532" width="21.2765957" height="21.2765957"></rect>
                <rect id="Rectangle-Copy-3" x="24.6808511" y="74.0425532" width="21.2765957" height="21.2765957"></rect>
                <rect id="Rectangle-Copy-3" x="49.3617021" y="74.0425532" width="21.2765957" height="21.2765957"></rect>
                <rect id="Rectangle-Copy-3" x="74.0425532" y="74.0425532" width="21.2765957" height="21.2765957"></rect>
                <rect id="Rectangle-Copy-7" x="98.7234043" y="0" width="21.2765957" height="21.2765957"></rect>
                <rect id="Rectangle-Copy-6" x="98.7234043" y="24.6808511" width="21.2765957" height="21.2765957"></rect>
                <rect id="Rectangle-Copy-5" x="98.7234043" y="49.3617021" width="21.2765957" height="21.2765957"></rect>
                <rect id="Rectangle-Copy-4" x="98.7234043" y="74.0425532" width="21.2765957" height="21.2765957"></rect>
                <rect id="Rectangle-Copy-12" x="0" y="98.7234043" width="21.2765957" height="21.2765957"></rect>
                <rect id="Rectangle-Copy-11" x="24.6808511" y="98.7234043" width="21.2765957" height="21.2765957"></rect>
                <rect id="Rectangle-Copy-10" x="49.3617021" y="98.7234043" width="21.2765957" height="21.2765957"></rect>
                <rect id="Rectangle-Copy-9" x="74.0425532" y="98.7234043" width="21.2765957" height="21.2765957"></rect>
                <rect id="Rectangle-Copy-8" x="98.7234043" y="98.7234043" width="21.2765957" height="21.2765957"></rect>
            </g>
        </g>
    </g>
</svg>