<?xml version="1.0" encoding="UTF-8"?>
<svg width="133px" height="133px" viewBox="0 0 133 133" version="1.1" xmlns="http://www.w3.org/2000/svg" xmlns:xlink="http://www.w3.org/1999/xlink">
    <title>Group</title>
    <g id="Page-1" stroke="none" stroke-width="1" fill="none" fill-rule="evenodd">
        <g id="Desktop" transform="translate(-155.000000, -759.000000)" fill="#000000">
            <g id="Group" transform="translate(155.000000, 759.000000)">
                <path d="M66.6108333,0 C103.263417,0.0609583333 133,29.8307917 133,66.5 C133,103.202458 103.208,133 66.5,133 C29.7975417,133 0,103.202458 0,66.5 C0,29.8307917 29.742125,0.0609583333 66.3947083,0 L66.6108333,0 Z M87.08175,88.6666667 L45.9237917,88.6666667 C49.4649167,112.307417 58.3482083,127.458333 66.5,127.458333 C74.6573333,127.458333 83.540625,112.307417 87.08175,88.6666667 M123.296542,88.6666667 L92.6899167,88.6666667 C90.3291667,105.208542 85.369375,118.60275 78.918875,126.189292 C99.25125,121.977625 115.887333,107.624708 123.296542,88.6666667 M40.315625,88.6666667 L9.70345833,88.6666667 C17.1182083,107.624708 33.7542917,121.977625 54.0866667,126.189292 C47.6361667,118.60275 42.676375,105.208542 40.315625,88.6666667 M39.634,49.875 L7.847,49.875 C6.01270833,56.3365833 3.740625,68.6557083 7.847,83.125 L39.634,83.125 C38.5921667,73.0724167 38.4425417,61.3739583 39.634,49.875 M87.796625,49.875 L45.2089167,49.875 C44.1282917,59.85 43.9620417,71.637125 45.2089167,83.125 L87.796625,83.125 C88.8827917,73.0890417 89.0379583,61.34625 87.796625,49.875 M125.158542,49.875 L93.3715417,49.875 C93.715125,53.1556667 95.078375,66.6052917 93.3715417,83.125 L125.158542,83.125 C129.264917,68.6501667 126.992833,56.3310417 125.158542,49.875 M54.0866667,6.81070833 C33.7542917,11.022375 17.1182083,25.3752917 9.70345833,44.3333333 L40.315625,44.3333333 C42.676375,27.7914583 47.6361667,14.3917083 54.0866667,6.81070833 M87.08175,44.3333333 C83.540625,20.6925833 74.6573333,5.54166667 66.5,5.54166667 C58.3482083,5.54166667 49.4649167,20.6925833 45.9237917,44.3333333 L87.08175,44.3333333 Z M78.918875,6.81070833 C85.369375,14.3917083 90.3291667,27.7914583 92.6899167,44.3333333 L123.296542,44.3333333 C115.887333,25.3752917 99.25125,11.022375 78.918875,6.81070833" id="Shape"></path>
            </g>
        </g>
    </g>
</svg>