<?xml version="1.0" encoding="UTF-8"?>
<svg width="64px" height="64px" viewBox="0 0 64 64" version="1.1" xmlns="http://www.w3.org/2000/svg" xmlns:xlink="http://www.w3.org/1999/xlink">
    <title>Group 17</title>
    <g id="Page-1" stroke="none" stroke-width="1" fill="none" fill-rule="evenodd">
        <g id="Desktop-Copy-2" transform="translate(-418.000000, -471.000000)">
            <g id="Group-17" transform="translate(418.000000, 471.000000)">
                <rect id="Rectangle-Copy-2" fill="#FFFFFF" x="0" y="0" width="64" height="64" rx="32"></rect>
                <path d="M31.825,16.1375 C40.4750875,16.1375 47.5125,23.1749125 47.5125,31.825 C47.5125,40.4750875 40.4750875,47.5125 31.825,47.5125 C23.1749125,47.5125 16.1375,40.4750875 16.1375,31.825 C16.1375,23.1749125 23.1749125,16.1375 31.825,16.1375 Z M31.825,13 C21.4288938,13 13,21.4288938 13,31.825 C13,42.2211063 21.4288938,50.65 31.825,50.65 C42.2211063,50.65 50.65,42.2211063 50.65,31.825 C50.65,21.4288938 42.2211063,13 31.825,13 Z M31.825,22.4125 C37.0159938,22.4125 41.2375,26.6340063 41.2375,31.825 C41.2375,37.0159938 37.0159938,41.2375 31.825,41.2375 C26.6340063,41.2375 22.4125,37.0159938 22.4125,31.825 C22.4125,26.6340063 26.6340063,22.4125 31.825,22.4125 Z M31.825,19.275 C24.8942625,19.275 19.275,24.8942625 19.275,31.825 C19.275,38.7557375 24.8942625,44.375 31.825,44.375 C38.7557375,44.375 44.375,38.7557375 44.375,31.825 C44.375,24.8942625 38.7557375,19.275 31.825,19.275 Z M31.825,25.55 C28.3596313,25.55 25.55,28.3596313 25.55,31.825 C25.55,35.2903688 28.3596313,38.1 31.825,38.1 C35.2903688,38.1 38.1,35.2903688 38.1,31.825 C38.1,28.3596313 35.2903688,25.55 31.825,25.55 Z" id="Shape" fill="#000000" fill-rule="nonzero"></path>
            </g>
        </g>
    </g>
</svg>