<?xml version="1.0" encoding="UTF-8"?>
<svg width="128px" height="128px" viewBox="0 0 128 128" version="1.1" xmlns="http://www.w3.org/2000/svg" xmlns:xlink="http://www.w3.org/1999/xlink">
    <title>Group 17 Copy 3</title>
    <g id="Page-1" stroke="none" stroke-width="1" fill="none" fill-rule="evenodd">
        <g id="Desktop-Copy-2" transform="translate(-659.000000, -272.000000)">
            <g id="Group-17-Copy-3" transform="translate(659.000000, 272.000000)">
                <rect id="Rectangle-Copy-2" fill="#FFFFFF" x="0" y="0" width="128" height="128" rx="64"></rect>
                <path d="M63.65,32.275 C80.950175,32.275 95.025,46.349825 95.025,63.65 C95.025,80.950175 80.950175,95.025 63.65,95.025 C46.349825,95.025 32.275,80.950175 32.275,63.65 C32.275,46.349825 46.349825,32.275 63.65,32.275 Z M63.65,26 C42.8577875,26 26,42.8577875 26,63.65 C26,84.4422125 42.8577875,101.3 63.65,101.3 C84.4422125,101.3 101.3,84.4422125 101.3,63.65 C101.3,42.8577875 84.4422125,26 63.65,26 Z" id="Shape" fill="#000000" fill-rule="nonzero"></path>
            </g>
        </g>
    </g>
</svg>