<?xml version="1.0" encoding="UTF-8"?>
<svg width="42px" height="72px" viewBox="0 0 42 72" version="1.1" xmlns="http://www.w3.org/2000/svg" xmlns:xlink="http://www.w3.org/1999/xlink">
    <title>Group</title>
    <g id="Page-1" stroke="none" stroke-width="1" fill="none" fill-rule="evenodd">
        <g id="Desktop-Copy-2" transform="translate(-501.000000, -598.000000)" fill="#000000">
            <g id="Group" transform="translate(501.000000, 598.000000)">
                <path d="M33,72 L9,72 L9,69 L19.5,69 L19.5,59.946 C8.61,59.178 0,50.085 0,39 L0,33 L3,33 L3,39.03 C3.015,48.951 11.076,57 21,57 C30.933,57 39,48.933 39,39 L39,33 L42,33 L42,39 C42,50.085 33.39,59.178 22.5,59.946 L22.5,69 L33,69 L33,72 Z M6,15 C6,6.72 12.72,0 21,0 C29.28,0 36,6.72 36,15 L36,39 C36,47.28 29.28,54 21,54 C12.72,54 6,47.28 6,39 L6,15 Z M33,15 C33,8.376 27.624,3 21,3 C14.376,3 9,8.376 9,15 L9,39 C9,45.624 14.376,51 21,51 C27.624,51 33,45.624 33,39 L33,15 Z" id="Shape"></path>
            </g>
        </g>
    </g>
</svg>