<?xml version="1.0" encoding="UTF-8"?>
<svg width="258px" height="258px" viewBox="0 0 258 258" version="1.1" xmlns="http://www.w3.org/2000/svg" xmlns:xlink="http://www.w3.org/1999/xlink">
    <title>Group</title>
    <g id="Page-1" stroke="none" stroke-width="1" fill="none" fill-rule="evenodd">
        <g id="Group" transform="translate(1.000000, 1.000000)" fill="#D8D8D8" fill-rule="nonzero" stroke="#979797">
            <g id="Group-3" transform="translate(0.000000, 25.601777)">
                <rect id="Rectangle-Copy-3" x="0" y="0" width="32.0727508" height="32.6117886"></rect>
                <rect id="Rectangle-Copy-3" x="0" y="65.223577" width="32.0727508" height="32.6117886"></rect>
                <rect id="Rectangle-Copy-3" x="0" y="130.447154" width="32.0727508" height="32.6117886"></rect>
                <rect id="Rectangle-Copy-3" x="0" y="195.670731" width="32.0727508" height="32.6117886"></rect>
                <rect id="Rectangle-Copy-3" x="64.1455013" y="0" width="32.0727508" height="32.6117886"></rect>
                <rect id="Rectangle-Copy-3" x="64.1455013" y="65.223577" width="32.0727508" height="32.6117886"></rect>
                <rect id="Rectangle-Copy-3" x="64.1455013" y="130.447154" width="32.0727508" height="32.6117886"></rect>
                <rect id="Rectangle-Copy-3" x="64.1455013" y="195.670731" width="32.0727508" height="32.6117886"></rect>
                <rect id="Rectangle-Copy-3" x="0" y="0" width="32.0727508" height="32.6117886"></rect>
                <rect id="Rectangle-Copy-3" x="0" y="65.223577" width="32.0727508" height="32.6117886"></rect>
                <rect id="Rectangle-Copy-3" x="0" y="130.447154" width="32.0727508" height="32.6117886"></rect>
                <rect id="Rectangle-Copy-3" x="0" y="195.670731" width="32.0727508" height="32.6117886"></rect>
                <rect id="Rectangle-Copy-3" x="64.1455013" y="0" width="32.0727508" height="32.6117886"></rect>
                <rect id="Rectangle-Copy-3" x="64.1455013" y="65.223577" width="32.0727508" height="32.6117886"></rect>
                <rect id="Rectangle-Copy-3" x="64.1455013" y="130.447154" width="32.0727508" height="32.6117886"></rect>
                <rect id="Rectangle-Copy-3" x="64.1455013" y="195.670731" width="32.0727508" height="32.6117886"></rect>
                <rect id="Rectangle-Copy-3" x="128.291003" y="0" width="32.0727508" height="32.6117886"></rect>
                <rect id="Rectangle-Copy-3" x="128.291003" y="65.223577" width="32.0727508" height="32.6117886"></rect>
                <rect id="Rectangle-Copy-3" x="128.291003" y="130.447154" width="32.0727508" height="32.6117886"></rect>
                <rect id="Rectangle-Copy-3" x="128.291003" y="195.670731" width="32.0727508" height="32.6117886"></rect>
                <rect id="Rectangle-Copy-3" x="192.436504" y="0" width="32.0727508" height="32.6117886"></rect>
                <rect id="Rectangle-Copy-3" x="192.436504" y="65.223577" width="32.0727508" height="32.6117886"></rect>
                <rect id="Rectangle-Copy-3" x="192.436504" y="130.447154" width="32.0727508" height="32.6117886"></rect>
                <rect id="Rectangle-Copy-3" x="192.436504" y="195.670731" width="32.0727508" height="32.6117886"></rect>
                <rect id="Rectangle-Copy-3" x="128.291003" y="0" width="32.0727508" height="32.6117886"></rect>
                <rect id="Rectangle-Copy-3" x="128.291003" y="65.223577" width="32.0727508" height="32.6117886"></rect>
                <rect id="Rectangle-Copy-3" x="128.291003" y="130.447154" width="32.0727508" height="32.6117886"></rect>
                <rect id="Rectangle-Copy-3" x="128.291003" y="195.670731" width="32.0727508" height="32.6117886"></rect>
                <rect id="Rectangle-Copy-3" x="192.436504" y="0" width="32.0727508" height="32.6117886"></rect>
                <rect id="Rectangle-Copy-3" x="192.436504" y="65.223577" width="32.0727508" height="32.6117886"></rect>
                <rect id="Rectangle-Copy-3" x="192.436504" y="130.447154" width="32.0727508" height="32.6117886"></rect>
                <rect id="Rectangle-Copy-3" x="192.436504" y="195.670731" width="32.0727508" height="32.6117886"></rect>
            </g>
            <g id="Group-3-Copy" transform="translate(0.000000, 25.601777)">
                <rect id="Rectangle-Copy-3" x="0" y="0" width="32.0727508" height="32.6117886"></rect>
                <rect id="Rectangle-Copy-3" x="0" y="65.223577" width="32.0727508" height="32.6117886"></rect>
                <rect id="Rectangle-Copy-3" x="0" y="130.447154" width="32.0727508" height="32.6117886"></rect>
                <rect id="Rectangle-Copy-3" x="0" y="195.670731" width="32.0727508" height="32.6117886"></rect>
                <rect id="Rectangle-Copy-3" x="64.1455013" y="0" width="32.0727508" height="32.6117886"></rect>
                <rect id="Rectangle-Copy-3" x="64.1455013" y="65.223577" width="32.0727508" height="32.6117886"></rect>
                <rect id="Rectangle-Copy-3" x="64.1455013" y="130.447154" width="32.0727508" height="32.6117886"></rect>
                <rect id="Rectangle-Copy-3" x="64.1455013" y="195.670731" width="32.0727508" height="32.6117886"></rect>
                <rect id="Rectangle-Copy-3" x="0" y="0" width="32.0727508" height="32.6117886"></rect>
                <rect id="Rectangle-Copy-3" x="0" y="65.223577" width="32.0727508" height="32.6117886"></rect>
                <rect id="Rectangle-Copy-3" x="0" y="130.447154" width="32.0727508" height="32.6117886"></rect>
                <rect id="Rectangle-Copy-3" x="0" y="195.670731" width="32.0727508" height="32.6117886"></rect>
                <rect id="Rectangle-Copy-3" x="64.1455013" y="0" width="32.0727508" height="32.6117886"></rect>
                <rect id="Rectangle-Copy-3" x="64.1455013" y="65.223577" width="32.0727508" height="32.6117886"></rect>
                <rect id="Rectangle-Copy-3" x="64.1455013" y="130.447154" width="32.0727508" height="32.6117886"></rect>
                <rect id="Rectangle-Copy-3" x="64.1455013" y="195.670731" width="32.0727508" height="32.6117886"></rect>
                <rect id="Rectangle-Copy-3" x="128.291003" y="0" width="32.0727508" height="32.6117886"></rect>
                <rect id="Rectangle-Copy-3" x="128.291003" y="65.223577" width="32.0727508" height="32.6117886"></rect>
                <rect id="Rectangle-Copy-3" x="128.291003" y="130.447154" width="32.0727508" height="32.6117886"></rect>
                <rect id="Rectangle-Copy-3" x="128.291003" y="195.670731" width="32.0727508" height="32.6117886"></rect>
                <rect id="Rectangle-Copy-3" x="192.436504" y="0" width="32.0727508" height="32.6117886"></rect>
                <rect id="Rectangle-Copy-3" x="192.436504" y="65.223577" width="32.0727508" height="32.6117886"></rect>
                <rect id="Rectangle-Copy-3" x="192.436504" y="130.447154" width="32.0727508" height="32.6117886"></rect>
                <rect id="Rectangle-Copy-3" x="192.436504" y="195.670731" width="32.0727508" height="32.6117886"></rect>
                <rect id="Rectangle-Copy-3" x="128.291003" y="0" width="32.0727508" height="32.6117886"></rect>
                <rect id="Rectangle-Copy-3" x="128.291003" y="65.223577" width="32.0727508" height="32.6117886"></rect>
                <rect id="Rectangle-Copy-3" x="128.291003" y="130.447154" width="32.0727508" height="32.6117886"></rect>
                <rect id="Rectangle-Copy-3" x="128.291003" y="195.670731" width="32.0727508" height="32.6117886"></rect>
                <rect id="Rectangle-Copy-3" x="192.436504" y="0" width="32.0727508" height="32.6117886"></rect>
                <rect id="Rectangle-Copy-3" x="192.436504" y="65.223577" width="32.0727508" height="32.6117886"></rect>
                <rect id="Rectangle-Copy-3" x="192.436504" y="130.447154" width="32.0727508" height="32.6117886"></rect>
                <rect id="Rectangle-Copy-3" x="192.436504" y="195.670731" width="32.0727508" height="32.6117886"></rect>
            </g>
            <g id="Group-3-Copy-2" transform="translate(10.491087, 17.067851)">
                <rect id="Rectangle-Copy-3" x="0" y="0" width="32.0727508" height="32.6117886"></rect>
                <rect id="Rectangle-Copy-3" x="0" y="65.223577" width="32.0727508" height="32.6117886"></rect>
                <rect id="Rectangle-Copy-3" x="0" y="130.447154" width="32.0727508" height="32.6117886"></rect>
                <rect id="Rectangle-Copy-3" x="0" y="195.670731" width="32.0727508" height="32.6117886"></rect>
                <rect id="Rectangle-Copy-3" x="64.1455013" y="0" width="32.0727508" height="32.6117886"></rect>
                <rect id="Rectangle-Copy-3" x="64.1455013" y="65.223577" width="32.0727508" height="32.6117886"></rect>
                <rect id="Rectangle-Copy-3" x="64.1455013" y="130.447154" width="32.0727508" height="32.6117886"></rect>
                <rect id="Rectangle-Copy-3" x="64.1455013" y="195.670731" width="32.0727508" height="32.6117886"></rect>
                <rect id="Rectangle-Copy-3" x="0" y="0" width="32.0727508" height="32.6117886"></rect>
                <rect id="Rectangle-Copy-3" x="0" y="65.223577" width="32.0727508" height="32.6117886"></rect>
                <rect id="Rectangle-Copy-3" x="0" y="130.447154" width="32.0727508" height="32.6117886"></rect>
                <rect id="Rectangle-Copy-3" x="0" y="195.670731" width="32.0727508" height="32.6117886"></rect>
                <rect id="Rectangle-Copy-3" x="64.1455013" y="0" width="32.0727508" height="32.6117886"></rect>
                <rect id="Rectangle-Copy-3" x="64.1455013" y="65.223577" width="32.0727508" height="32.6117886"></rect>
                <rect id="Rectangle-Copy-3" x="64.1455013" y="130.447154" width="32.0727508" height="32.6117886"></rect>
                <rect id="Rectangle-Copy-3" x="64.1455013" y="195.670731" width="32.0727508" height="32.6117886"></rect>
                <rect id="Rectangle-Copy-3" x="128.291003" y="0" width="32.0727508" height="32.6117886"></rect>
                <rect id="Rectangle-Copy-3" x="128.291003" y="65.223577" width="32.0727508" height="32.6117886"></rect>
                <rect id="Rectangle-Copy-3" x="128.291003" y="130.447154" width="32.0727508" height="32.6117886"></rect>
                <rect id="Rectangle-Copy-3" x="128.291003" y="195.670731" width="32.0727508" height="32.6117886"></rect>
                <rect id="Rectangle-Copy-3" x="192.436504" y="0" width="32.0727508" height="32.6117886"></rect>
                <rect id="Rectangle-Copy-3" x="192.436504" y="65.223577" width="32.0727508" height="32.6117886"></rect>
                <rect id="Rectangle-Copy-3" x="192.436504" y="130.447154" width="32.0727508" height="32.6117886"></rect>
                <rect id="Rectangle-Copy-3" x="192.436504" y="195.670731" width="32.0727508" height="32.6117886"></rect>
                <rect id="Rectangle-Copy-3" x="128.291003" y="0" width="32.0727508" height="32.6117886"></rect>
                <rect id="Rectangle-Copy-3" x="128.291003" y="65.223577" width="32.0727508" height="32.6117886"></rect>
                <rect id="Rectangle-Copy-3" x="128.291003" y="130.447154" width="32.0727508" height="32.6117886"></rect>
                <rect id="Rectangle-Copy-3" x="128.291003" y="195.670731" width="32.0727508" height="32.6117886"></rect>
                <rect id="Rectangle-Copy-3" x="192.436504" y="0" width="32.0727508" height="32.6117886"></rect>
                <rect id="Rectangle-Copy-3" x="192.436504" y="65.223577" width="32.0727508" height="32.6117886"></rect>
                <rect id="Rectangle-Copy-3" x="192.436504" y="130.447154" width="32.0727508" height="32.6117886"></rect>
                <rect id="Rectangle-Copy-3" x="192.436504" y="195.670731" width="32.0727508" height="32.6117886"></rect>
            </g>
            <g id="Group-3-Copy-3" transform="translate(18.883956, 8.533926)">
                <rect id="Rectangle-Copy-3" x="0" y="0" width="32.0727508" height="32.6117886"></rect>
                <rect id="Rectangle-Copy-3" x="0" y="65.223577" width="32.0727508" height="32.6117886"></rect>
                <rect id="Rectangle-Copy-3" x="0" y="130.447154" width="32.0727508" height="32.6117886"></rect>
                <rect id="Rectangle-Copy-3" x="0" y="195.670731" width="32.0727508" height="32.6117886"></rect>
                <rect id="Rectangle-Copy-3" x="64.1455013" y="0" width="32.0727508" height="32.6117886"></rect>
                <rect id="Rectangle-Copy-3" x="64.1455013" y="65.223577" width="32.0727508" height="32.6117886"></rect>
                <rect id="Rectangle-Copy-3" x="64.1455013" y="130.447154" width="32.0727508" height="32.6117886"></rect>
                <rect id="Rectangle-Copy-3" x="64.1455013" y="195.670731" width="32.0727508" height="32.6117886"></rect>
                <rect id="Rectangle-Copy-3" x="0" y="0" width="32.0727508" height="32.6117886"></rect>
                <rect id="Rectangle-Copy-3" x="0" y="65.223577" width="32.0727508" height="32.6117886"></rect>
                <rect id="Rectangle-Copy-3" x="0" y="130.447154" width="32.0727508" height="32.6117886"></rect>
                <rect id="Rectangle-Copy-3" x="0" y="195.670731" width="32.0727508" height="32.6117886"></rect>
                <rect id="Rectangle-Copy-3" x="64.1455013" y="0" width="32.0727508" height="32.6117886"></rect>
                <rect id="Rectangle-Copy-3" x="64.1455013" y="65.223577" width="32.0727508" height="32.6117886"></rect>
                <rect id="Rectangle-Copy-3" x="64.1455013" y="130.447154" width="32.0727508" height="32.6117886"></rect>
                <rect id="Rectangle-Copy-3" x="64.1455013" y="195.670731" width="32.0727508" height="32.6117886"></rect>
                <rect id="Rectangle-Copy-3" x="128.291003" y="0" width="32.0727508" height="32.6117886"></rect>
                <rect id="Rectangle-Copy-3" x="128.291003" y="65.223577" width="32.0727508" height="32.6117886"></rect>
                <rect id="Rectangle-Copy-3" x="128.291003" y="130.447154" width="32.0727508" height="32.6117886"></rect>
                <rect id="Rectangle-Copy-3" x="128.291003" y="195.670731" width="32.0727508" height="32.6117886"></rect>
                <rect id="Rectangle-Copy-3" x="192.436504" y="0" width="32.0727508" height="32.6117886"></rect>
                <rect id="Rectangle-Copy-3" x="192.436504" y="65.223577" width="32.0727508" height="32.6117886"></rect>
                <rect id="Rectangle-Copy-3" x="192.436504" y="130.447154" width="32.0727508" height="32.6117886"></rect>
                <rect id="Rectangle-Copy-3" x="192.436504" y="195.670731" width="32.0727508" height="32.6117886"></rect>
                <rect id="Rectangle-Copy-3" x="128.291003" y="0" width="32.0727508" height="32.6117886"></rect>
                <rect id="Rectangle-Copy-3" x="128.291003" y="65.223577" width="32.0727508" height="32.6117886"></rect>
                <rect id="Rectangle-Copy-3" x="128.291003" y="130.447154" width="32.0727508" height="32.6117886"></rect>
                <rect id="Rectangle-Copy-3" x="128.291003" y="195.670731" width="32.0727508" height="32.6117886"></rect>
                <rect id="Rectangle-Copy-3" x="192.436504" y="0" width="32.0727508" height="32.6117886"></rect>
                <rect id="Rectangle-Copy-3" x="192.436504" y="65.223577" width="32.0727508" height="32.6117886"></rect>
                <rect id="Rectangle-Copy-3" x="192.436504" y="130.447154" width="32.0727508" height="32.6117886"></rect>
                <rect id="Rectangle-Copy-3" x="192.436504" y="195.670731" width="32.0727508" height="32.6117886"></rect>
            </g>
            <g id="Group-3-Copy-4" transform="translate(29.375044, 0.000000)">
                <rect id="Rectangle-Copy-3" x="0" y="0" width="32.0727508" height="32.6117886"></rect>
                <rect id="Rectangle-Copy-3" x="0" y="65.223577" width="32.0727508" height="32.6117886"></rect>
                <rect id="Rectangle-Copy-3" x="0" y="130.447154" width="32.0727508" height="32.6117886"></rect>
                <rect id="Rectangle-Copy-3" x="0" y="195.670731" width="32.0727508" height="32.6117886"></rect>
                <rect id="Rectangle-Copy-3" x="64.1455013" y="0" width="32.0727508" height="32.6117886"></rect>
                <rect id="Rectangle-Copy-3" x="64.1455013" y="65.223577" width="32.0727508" height="32.6117886"></rect>
                <rect id="Rectangle-Copy-3" x="64.1455013" y="130.447154" width="32.0727508" height="32.6117886"></rect>
                <rect id="Rectangle-Copy-3" x="64.1455013" y="195.670731" width="32.0727508" height="32.6117886"></rect>
                <rect id="Rectangle-Copy-3" x="0" y="0" width="32.0727508" height="32.6117886"></rect>
                <rect id="Rectangle-Copy-3" x="0" y="65.223577" width="32.0727508" height="32.6117886"></rect>
                <rect id="Rectangle-Copy-3" x="0" y="130.447154" width="32.0727508" height="32.6117886"></rect>
                <rect id="Rectangle-Copy-3" x="0" y="195.670731" width="32.0727508" height="32.6117886"></rect>
                <rect id="Rectangle-Copy-3" x="64.1455013" y="0" width="32.0727508" height="32.6117886"></rect>
                <rect id="Rectangle-Copy-3" x="64.1455013" y="65.223577" width="32.0727508" height="32.6117886"></rect>
                <rect id="Rectangle-Copy-3" x="64.1455013" y="130.447154" width="32.0727508" height="32.6117886"></rect>
                <rect id="Rectangle-Copy-3" x="64.1455013" y="195.670731" width="32.0727508" height="32.6117886"></rect>
                <rect id="Rectangle-Copy-3" x="128.291003" y="0" width="32.0727508" height="32.6117886"></rect>
                <rect id="Rectangle-Copy-3" x="128.291003" y="65.223577" width="32.0727508" height="32.6117886"></rect>
                <rect id="Rectangle-Copy-3" x="128.291003" y="130.447154" width="32.0727508" height="32.6117886"></rect>
                <rect id="Rectangle-Copy-3" x="128.291003" y="195.670731" width="32.0727508" height="32.6117886"></rect>
                <rect id="Rectangle-Copy-3" x="192.436504" y="0" width="32.0727508" height="32.6117886"></rect>
                <rect id="Rectangle-Copy-3" x="192.436504" y="65.223577" width="32.0727508" height="32.6117886"></rect>
                <rect id="Rectangle-Copy-3" x="192.436504" y="130.447154" width="32.0727508" height="32.6117886"></rect>
                <rect id="Rectangle-Copy-3" x="192.436504" y="195.670731" width="32.0727508" height="32.6117886"></rect>
                <rect id="Rectangle-Copy-3" x="128.291003" y="0" width="32.0727508" height="32.6117886"></rect>
                <rect id="Rectangle-Copy-3" x="128.291003" y="65.223577" width="32.0727508" height="32.6117886"></rect>
                <rect id="Rectangle-Copy-3" x="128.291003" y="130.447154" width="32.0727508" height="32.6117886"></rect>
                <rect id="Rectangle-Copy-3" x="128.291003" y="195.670731" width="32.0727508" height="32.6117886"></rect>
                <rect id="Rectangle-Copy-3" x="192.436504" y="0" width="32.0727508" height="32.6117886"></rect>
                <rect id="Rectangle-Copy-3" x="192.436504" y="65.223577" width="32.0727508" height="32.6117886"></rect>
                <rect id="Rectangle-Copy-3" x="192.436504" y="130.447154" width="32.0727508" height="32.6117886"></rect>
                <rect id="Rectangle-Copy-3" x="192.436504" y="195.670731" width="32.0727508" height="32.6117886"></rect>
            </g>
        </g>
    </g>
</svg>